<?xml version="1.0" standalone="no"?>
<!DOCTYPE svg PUBLIC "-//W3C//DTD SVG 20010904//EN"
 "http://www.w3.org/TR/2001/REC-SVG-20010904/DTD/svg10.dtd">
<svg version="1.0" xmlns="http://www.w3.org/2000/svg"
 width="260.000000pt" height="260.000000pt" viewBox="0 0 260.000000 260.000000"
 preserveAspectRatio="xMidYMid meet">
<metadata>
Created by potrace 1.14, written by Peter Selinger 2001-2017
</metadata>
<g transform="translate(0.000000,260.000000) scale(0.100000,-0.100000)"
fill="#000000" stroke="none">
<path d="M281 1903 c-18 -9 -42 -31 -52 -47 -43 -70 -11 -144 79 -182 101 -42
107 -47 107 -79 0 -44 -41 -61 -114 -47 -31 6 -64 13 -74 17 -16 7 -18 3 -15
-36 4 -51 15 -57 123 -58 123 -1 185 45 185 138 0 55 -34 92 -117 127 -85 35
-97 45 -89 78 8 32 57 43 121 27 59 -15 57 -16 53 26 -2 30 -8 39 -28 44 -48
13 -144 9 -179 -8z"/>
<path d="M1430 1904 c-82 -36 -114 -96 -115 -214 0 -108 26 -163 95 -197 50
-26 137 -31 201 -11 l39 11 0 114 0 113 -85 0 -85 0 0 -30 c0 -28 2 -30 40
-30 l40 0 0 -55 c0 -50 -2 -55 -25 -61 -37 -9 -77 9 -102 46 -18 26 -23 47
-23 100 0 77 24 125 75 149 29 14 66 10 143 -14 22 -7 23 -6 20 36 -3 36 -7
44 -28 50 -45 13 -154 9 -190 -7z"/>
<path d="M610 1695 l0 -215 135 0 135 0 0 35 0 35 -90 0 -90 0 0 60 0 60 85 0
85 0 0 30 0 30 -85 0 -85 0 0 55 0 55 90 0 90 0 0 35 0 35 -135 0 -135 0 0
-215z"/>
<path d="M960 1695 l0 -215 45 0 45 0 0 90 c0 66 3 90 13 90 28 0 55 -33 87
-104 l33 -76 53 0 54 0 -46 93 c-26 50 -53 96 -61 100 -11 7 -7 13 19 25 74
38 73 153 -2 193 -27 15 -56 19 -137 19 l-103 0 0 -215z m185 135 c18 -15 19
-60 2 -84 -7 -9 -32 -20 -55 -23 l-42 -6 0 68 0 68 40 -6 c23 -3 47 -11 55
-17z"/>
<path d="M1730 1695 l0 -215 135 0 135 0 0 35 0 35 -90 0 -90 0 0 60 0 60 85
0 85 0 0 30 0 30 -85 0 -85 0 0 55 0 55 90 0 90 0 0 35 0 35 -135 0 -135 0 0
-215z"/>
<path d="M2050 1903 c0 -3 32 -66 70 -139 69 -130 70 -134 70 -208 l0 -76 45
0 45 0 0 77 c0 75 1 78 70 210 39 74 70 136 70 138 0 3 -22 5 -48 5 l-48 0
-44 -91 -45 -90 -45 90 -45 91 -47 0 c-27 0 -48 -3 -48 -7z"/>
<path d="M104 1096 c-48 -21 -74 -61 -74 -116 0 -61 24 -86 125 -130 77 -34
94 -54 75 -89 -15 -29 -68 -35 -140 -17 -34 9 -64 16 -66 16 -3 0 -4 -19 -2
-42 3 -39 6 -43 38 -51 19 -5 69 -7 111 -5 64 2 81 7 112 31 73 55 72 154 -1
201 -21 13 -58 32 -84 41 -82 30 -100 73 -41 96 26 10 72 7 131 -8 22 -5 23
-3 20 33 -2 31 -8 40 -28 45 -43 12 -144 9 -176 -5z"/>
<path d="M1625 1093 c-69 -36 -102 -90 -111 -182 -17 -158 58 -252 198 -250
100 2 112 8 116 57 2 23 0 42 -3 42 -3 0 -28 -7 -55 -16 -40 -13 -55 -14 -85
-4 -86 28 -103 206 -26 275 24 21 72 25 134 12 l37 -8 0 39 c0 27 -5 42 -16
46 -32 12 -159 5 -189 -11z"/>
<path d="M1964 1091 c-71 -43 -98 -111 -92 -231 6 -131 53 -190 157 -198 107
-8 170 46 192 162 13 71 -2 179 -29 216 -52 69 -159 93 -228 51z m118 -62 c30
-16 48 -70 48 -144 0 -110 -36 -164 -101 -150 -74 16 -94 211 -29 277 31 30
50 34 82 17z"/>
<path d="M400 885 l0 -215 50 0 49 0 3 90 3 90 55 -90 55 -90 58 0 c44 0 56 3
51 13 -5 6 -39 56 -77 109 -43 61 -65 103 -61 110 5 7 33 49 64 93 31 44 60
86 64 93 5 9 -6 12 -46 12 l-53 0 -55 -88 -55 -87 -3 88 -3 87 -49 0 -50 0 0
-215z"/>
<path d="M790 1070 c0 -29 2 -30 45 -30 l45 0 0 -155 0 -155 -45 0 c-43 0 -45
-1 -45 -30 l0 -30 140 0 140 0 0 30 c0 29 -1 30 -50 30 l-50 0 0 155 0 155 50
0 c49 0 50 1 50 30 l0 30 -140 0 -140 0 0 -30z"/>
<path d="M2267 1068 c-3 -18 -9 -115 -13 -215 l-7 -183 37 0 c21 0 36 5 37 13
1 6 4 75 8 152 l6 140 25 -87 c24 -86 25 -88 55 -88 30 0 32 3 62 93 l31 92 1
-90 c1 -49 4 -120 8 -157 l6 -68 40 0 39 0 -6 63 c-3 34 -8 131 -12 215 l-7
152 -52 0 -52 0 -24 -80 c-13 -44 -27 -80 -31 -80 -5 0 -8 5 -8 11 0 6 -9 42
-21 80 l-21 69 -48 0 c-46 0 -48 -1 -53 -32z"/>
<path d="M1250 770 c-41 -41 -10 -110 50 -110 37 0 70 31 70 65 0 34 -33 65
-70 65 -17 0 -39 -9 -50 -20z"/>
</g>
</svg>
